# xmcd
#
# Track frame offsets:
#	150
#	19917
#	40972
#	57470
#	79955
#	118712
#	141687
#	163127
#	183052
#	196575
#	228740
#	257240
#
# Disc length: 3680 seconds
#
# Revision: 2
# Processed by: cddbd v1.4PL0 Copyright (c) Steve Scherf et al.
# Submitted via: EZCDDA 4.3.2
#
DISCID=ae0e5e0c
DTITLE=B.B. King and Eric Clapton - Riding with the King
DYEAR=2000
DGENRE=Blues
TTITLE0=Riding with the King
TTITLE1=Ten Long Years
TTITLE2=Key to the Highway
TTITLE3=Marry You
TTITLE4=Three O'Clock Blues
TTITLE5=Help the Poor
TTITLE6=I Wanna Be
TTITLE7=Worried Life Blues
TTITLE8=Days of Old
TTITLE9=When My Heart Beats Like a Hammer
TTITLE10=Hold On I'm Coming
TTITLE11=Come Rain or Come Shine
EXTD=\nYEAR: 2000  ID3G:   0
EXTT0=
EXTT1=
EXTT2=
EXTT3=
EXTT4=
EXTT5=
EXTT6=
EXTT7=
EXTT8=
EXTT9=
EXTT10=
EXTT11=
PLAYORDER=
